<mxfile host="app.diagrams.net" modified="2023-11-24T13:37:34.909Z" agent="Mozilla/5.0 (Windows NT 10.0; Win64; x64) AppleWebKit/537.36 (KHTML, like Gecko) Chrome/119.0.0.0 Safari/537.36" version="22.1.3" etag="L_oHtpyOZLO6_3CxDBpj" type="github">
  <diagram name="Page-1" id="qbAc641PKSr74a0tz3VJ">
    <mxGraphModel>
      <root>
        <mxCell id="0" />
        <mxCell id="1" parent="0" />
      </root>
    </mxGraphModel>
  </diagram>
</mxfile>
